<?xml version="1.0" standalone="no"?>
<!DOCTYPE svg PUBLIC "-//W3C//DTD SVG 20010904//EN"
 "http://www.w3.org/TR/2001/REC-SVG-20010904/DTD/svg10.dtd">
<svg version="1.0" xmlns="http://www.w3.org/2000/svg"
 width="201.000000pt" height="178.000000pt" viewBox="0 0 201.000000 178.000000"
 preserveAspectRatio="xMidYMid meet">

<g transform="translate(0.000000,178.000000) scale(0.100000,-0.100000)"
fill="#000000" stroke="none">
<path d="M930 1595 c-14 -42 -9 -51 31 -60 38 -8 45 -26 29 -68 -19 -47 -23
-49 -64 -32 -43 18 -46 17 -61 -28 -11 -34 -20 -36 -81 -22 -29 6 -31 5 -43
-34 -13 -46 -14 -46 -68 -27 l-40 14 -12 -38 c-16 -54 -15 -56 30 -69 32 -10
39 -16 34 -29 -22 -53 -23 -72 -7 -81 9 -5 109 -40 222 -79 113 -38 285 -97
382 -131 97 -34 183 -61 191 -61 8 0 19 18 26 41 8 27 17 39 26 35 7 -2 29 -8
49 -11 34 -7 35 -6 47 35 11 35 16 40 33 35 51 -17 67 -11 81 28 14 41 9 47
-50 59 -21 4 -22 10 -10 70 7 36 7 37 -35 49 -35 11 -40 16 -35 33 20 70 19
73 -19 86 -46 15 -49 20 -31 69 8 23 13 41 11 41 -2 0 -50 16 -107 36 -228 79
-508 174 -512 174 -3 0 -11 -16 -17 -35z"/>
<path d="M810 1534 c-13 -40 -9 -46 36 -62 29 -9 31 -8 42 22 17 47 15 53 -19
65 -45 16 -46 15 -59 -25z"/>
<path d="M689 1483 c-5 -16 -11 -33 -14 -40 -4 -11 43 -33 71 -33 10 0 34 48
34 71 0 7 -54 29 -72 29 -5 0 -13 -12 -19 -27z"/>
<path d="M566 1426 c-3 -13 -8 -31 -12 -39 -3 -10 5 -18 27 -26 46 -16 56 -14
63 13 3 13 9 31 12 39 4 12 -5 18 -33 26 -51 14 -50 15 -57 -13z"/>
<path d="M424 1304 c-30 -93 -25 -90 -100 -69 -17 5 -23 -1 -36 -34 l-16 -41
26 -6 c59 -14 63 -20 46 -66 -8 -23 -11 -45 -7 -48 5 -4 199 -73 433 -153 234
-80 530 -182 659 -226 129 -45 242 -81 251 -81 11 0 21 14 29 41 10 32 16 39
29 34 9 -3 29 -9 43 -12 24 -4 28 -1 39 31 13 40 7 56 -19 56 -9 0 -26 6 -36
14 -18 13 -18 16 13 99 l31 86 -35 11 c-19 7 -41 10 -48 7 -6 -3 -29 -54 -49
-113 -21 -60 -41 -115 -46 -122 -6 -10 -113 23 -462 143 -454 157 -586 201
-667 226 -24 7 -45 16 -47 19 -3 4 15 66 39 138 l44 131 -30 10 c-17 6 -37 11
-43 11 -7 0 -25 -39 -41 -86z"/>
<path d="M169 1153 c-5 -16 -11 -33 -14 -40 -3 -11 43 -33 69 -33 10 0 36 53
36 72 0 6 -56 28 -72 28 -5 0 -13 -12 -19 -27z"/>
<path d="M42 1084 c-9 -32 -9 -36 11 -43 60 -23 64 -22 71 3 3 13 8 31 12 39
3 10 -5 18 -27 26 -48 17 -55 14 -67 -25z"/>
<path d="M109 982 c-5 -15 -12 -33 -14 -40 -4 -12 49 -42 73 -42 12 0 33 73
24 81 -4 3 -22 11 -40 17 -31 11 -33 10 -43 -16z"/>
<path d="M163 845 c-11 -33 -10 -36 16 -49 14 -8 52 -22 83 -31 32 -9 60 -20
63 -25 3 -4 -2 -26 -9 -48 l-15 -41 31 -10 c46 -16 53 -14 67 24 14 39 25 42
77 20 29 -12 35 -19 29 -32 -4 -10 -10 -30 -12 -44 -4 -22 0 -27 36 -37 l40
-12 -15 -42 c-19 -55 -19 -56 26 -69 44 -13 45 -15 28 -71 -10 -33 -15 -38
-32 -33 -69 19 -72 19 -83 -19 -6 -20 -7 -38 -2 -41 18 -12 611 -217 614 -213
1 2 8 21 17 43 9 25 20 39 29 36 8 -2 27 -7 42 -12 27 -8 30 -6 45 32 15 37
20 40 47 36 17 -3 37 -8 46 -12 13 -5 20 3 29 32 18 54 17 53 60 38 43 -15 51
-11 69 38 13 33 19 33 111 2 40 -14 76 -25 80 -25 9 0 33 71 26 77 -8 8 -1506
523 -1521 523 -6 0 -17 -16 -22 -35z"/>
<path d="M1801 589 c-16 -46 -14 -56 13 -63 13 -3 31 -8 39 -12 10 -3 18 5 26
27 16 47 14 54 -22 67 -45 16 -43 16 -56 -19z"/>
<path d="M379 582 c-5 -15 -11 -32 -14 -38 -4 -13 36 -34 63 -34 19 0 47 59
34 71 -4 3 -22 11 -40 17 -31 11 -33 10 -43 -16z"/>
<path d="M1861 469 c-15 -44 -15 -46 20 -58 43 -15 44 -15 57 14 18 38 15 52
-12 59 -13 3 -31 8 -39 12 -10 3 -18 -5 -26 -27z"/>
<path d="M435 453 c-8 -19 -15 -39 -15 -43 0 -7 80 -34 84 -28 11 13 25 73 19
79 -5 3 -23 11 -41 17 -31 11 -33 10 -47 -25z"/>
<path d="M1739 413 c-5 -16 -11 -33 -13 -39 -4 -9 53 -34 77 -34 5 0 27 57 27
71 0 7 -54 29 -72 29 -5 0 -13 -12 -19 -27z"/>
</g>
</svg>
